<svg xmlns="http://www.w3.org/2000/svg" width="30.319" height="30.319" viewBox="0 0 30.319 30.319">
  <g id="Groupe_1" data-name="Groupe 1" transform="translate(-204 -198.681)">
    <path id="Tracé_1" data-name="Tracé 1" d="M234.024,210.871H232.8v-.062H219.16v6.063h8.567a9.1,9.1,0,1,1-2.533-9.824l4.288-4.288a15.115,15.115,0,1,0,4.542,8.111Z" fill="#ffb017"/>
    <path id="Tracé_2" data-name="Tracé 2" d="M205.748,206.784l4.981,3.653a9.078,9.078,0,0,1,14.465-3.389l4.288-4.288a15.131,15.131,0,0,0-23.734,4.024Z" fill="#dc2127"/>
    <path id="Tracé_3" data-name="Tracé 3" d="M219.16,229a15.092,15.092,0,0,0,10.163-3.935l-4.692-3.971a9.072,9.072,0,0,1-14.024-4.181l-4.943,3.809A15.147,15.147,0,0,0,219.16,229Z" fill="#4fa13c"/>
    <path id="Tracé_4" data-name="Tracé 4" d="M234.024,210.871l-.012-.062H219.16v6.063h8.567a9.122,9.122,0,0,1-3.1,4.223h0l4.692,3.97a14.668,14.668,0,0,0,5-11.224A15.214,15.214,0,0,0,234.024,210.871Z" fill="#0053a0"/>
  </g>
</svg>
