<svg xmlns="http://www.w3.org/2000/svg" width="15.646" height="30" viewBox="0 0 15.646 30">
  <path id="icons8-facebook-f" d="M21.1,12.5H17.5v-3c0-1.548.126-2.523,2.344-2.523h1.3a1.5,1.5,0,0,0,1.5-1.5V3.6a1.5,1.5,0,0,0-1.384-1.507Q19.9,2,18.539,2C14.47,2,11.5,4.486,11.5,9.049V12.5h-3A1.5,1.5,0,0,0,7,14v3a1.5,1.5,0,0,0,1.5,1.5h3v12A1.5,1.5,0,0,0,13,32h3a1.5,1.5,0,0,0,1.5-1.5v-12l3.261,0a1.5,1.5,0,0,0,1.489-1.329l.344-2.994A1.5,1.5,0,0,0,21.1,12.5Z" transform="translate(-7 -2)" fill="#6999fb"/>
</svg>
