<svg xmlns="http://www.w3.org/2000/svg" width="32.279" height="26" viewBox="0 0 32.279 26">
  <path id="icons8-twitter" d="M38.276,12.074a13.429,13.429,0,0,1-3.808,1.042,6.616,6.616,0,0,0,2.915-3.638,13.3,13.3,0,0,1-4.208,1.592A6.6,6.6,0,0,0,21.9,17.06,18.872,18.872,0,0,1,8.248,10.2a6.483,6.483,0,0,0-.9,3.3A6.549,6.549,0,0,0,10.3,18.968a6.742,6.742,0,0,1-3-.819v.077a6.583,6.583,0,0,0,5.31,6.438,6.586,6.586,0,0,1-1.74.236,7.037,7.037,0,0,1-1.248-.121,6.634,6.634,0,0,0,6.184,4.56,13.381,13.381,0,0,1-8.225,2.81A13.1,13.1,0,0,1,6,32.055,18.925,18.925,0,0,0,16.15,35,18.628,18.628,0,0,0,34.992,16.321c0-.284-.009-.568-.022-.847a13.029,13.029,0,0,0,3.306-3.4" transform="translate(-5.997 -9)" fill="#03a9f4"/>
</svg>
